<svg width="425" height="284" viewBox="0 0 425 284" fill="none" xmlns="http://www.w3.org/2000/svg">
<path opacity="0.02" d="M0 283.203V275.195C6.77083 274.935 11.9141 274.414 15.4297 273.633C18.9453 272.721 21.875 270.964 24.2188 268.359C26.6927 265.755 28.2552 262.435 28.9062 258.398C29.5573 254.362 29.8828 248.503 29.8828 240.82V42.3828C29.8828 34.8307 29.5573 29.0365 28.9062 25C28.2552 20.8333 26.6927 17.4479 24.2188 14.8438C21.875 12.2396 18.9453 10.5469 15.4297 9.76562C11.9141 8.85417 6.77083 8.26823 0 8.00781V0C13.4115 0.78125 34.4401 1.17188 63.0859 1.17188C88.9974 1.17188 109.18 0.78125 123.633 0V8.00781C116.732 8.26823 111.523 8.85417 108.008 9.76562C104.492 10.5469 101.497 12.2396 99.0234 14.8438C96.6797 17.4479 95.1823 20.7682 94.5312 24.8047C93.8802 28.8411 93.5547 34.7005 93.5547 42.3828V240.82C93.5547 248.372 93.8802 254.232 94.5312 258.398C95.1823 262.435 96.6797 265.755 99.0234 268.359C101.497 270.964 104.492 272.721 108.008 273.633C111.654 274.414 116.862 274.935 123.633 275.195V283.203C109.18 282.422 88.9974 282.031 63.0859 282.031C34.4401 282.031 13.4115 282.422 0 283.203ZM150.391 283.203V275.195C157.161 274.935 162.305 274.414 165.82 273.633C169.336 272.721 172.266 270.964 174.609 268.359C177.083 265.755 178.646 262.435 179.297 258.398C179.948 254.362 180.273 248.503 180.273 240.82V42.3828C180.273 34.8307 179.948 29.0365 179.297 25C178.646 20.8333 177.083 17.4479 174.609 14.8438C172.266 12.2396 169.336 10.5469 165.82 9.76562C162.305 8.85417 157.161 8.26823 150.391 8.00781V0C163.802 0.78125 184.831 1.17188 213.477 1.17188C239.388 1.17188 259.57 0.78125 274.023 0V8.00781C267.122 8.26823 261.914 8.85417 258.398 9.76562C254.883 10.5469 251.888 12.2396 249.414 14.8438C247.07 17.4479 245.573 20.7682 244.922 24.8047C244.271 28.8411 243.945 34.7005 243.945 42.3828V240.82C243.945 248.372 244.271 254.232 244.922 258.398C245.573 262.435 247.07 265.755 249.414 268.359C251.888 270.964 254.883 272.721 258.398 273.633C262.044 274.414 267.253 274.935 274.023 275.195V283.203C259.57 282.422 239.388 282.031 213.477 282.031C184.831 282.031 163.802 282.422 150.391 283.203ZM300.781 283.203V275.195C307.552 274.935 312.695 274.414 316.211 273.633C319.727 272.721 322.656 270.964 325 268.359C327.474 265.755 329.036 262.435 329.688 258.398C330.339 254.362 330.664 248.503 330.664 240.82V42.3828C330.664 34.8307 330.339 29.0365 329.688 25C329.036 20.8333 327.474 17.4479 325 14.8438C322.656 12.2396 319.727 10.5469 316.211 9.76562C312.695 8.85417 307.552 8.26823 300.781 8.00781V0C314.193 0.78125 335.221 1.17188 363.867 1.17188C389.779 1.17188 409.961 0.78125 424.414 0V8.00781C417.513 8.26823 412.305 8.85417 408.789 9.76562C405.273 10.5469 402.279 12.2396 399.805 14.8438C397.461 17.4479 395.964 20.7682 395.312 24.8047C394.661 28.8411 394.336 34.7005 394.336 42.3828V240.82C394.336 248.372 394.661 254.232 395.312 258.398C395.964 262.435 397.461 265.755 399.805 268.359C402.279 270.964 405.273 272.721 408.789 273.633C412.435 274.414 417.643 274.935 424.414 275.195V283.203C409.961 282.422 389.779 282.031 363.867 282.031C335.221 282.031 314.193 282.422 300.781 283.203Z" fill="white"/>
</svg>
