<svg width="408" height="284" viewBox="0 0 408 284" fill="none" xmlns="http://www.w3.org/2000/svg">
<path opacity="0.02" d="M0 283.203V275.195C6.77083 274.935 11.9141 274.414 15.4297 273.633C18.9453 272.721 21.875 270.964 24.2188 268.359C26.6927 265.755 28.2552 262.435 28.9062 258.398C29.5573 254.362 29.8828 248.503 29.8828 240.82V42.3828C29.8828 34.8307 29.5573 29.0365 28.9062 25C28.2552 20.8333 26.6927 17.4479 24.2188 14.8438C21.875 12.2396 18.9453 10.5469 15.4297 9.76562C11.9141 8.85417 6.77083 8.26823 0 8.00781V0C13.4115 0.78125 34.4401 1.17188 63.0859 1.17188C88.9974 1.17188 109.18 0.78125 123.633 0V8.00781C116.732 8.26823 111.523 8.85417 108.008 9.76562C104.492 10.5469 101.497 12.2396 99.0234 14.8438C96.6797 17.4479 95.1823 20.7682 94.5312 24.8047C93.8802 28.8411 93.5547 34.7005 93.5547 42.3828V240.82C93.5547 248.372 93.8802 254.232 94.5312 258.398C95.1823 262.435 96.6797 265.755 99.0234 268.359C101.497 270.964 104.492 272.721 108.008 273.633C111.654 274.414 116.862 274.935 123.633 275.195V283.203C109.18 282.422 88.9974 282.031 63.0859 282.031C34.4401 282.031 13.4115 282.422 0 283.203ZM132.031 8.00781V0C148.047 0.78125 168.359 1.17188 192.969 1.17188C220.443 1.17188 240.69 0.78125 253.711 0V8.00781C243.685 8.39844 236.458 9.63542 232.031 11.7188C227.734 13.6719 225.586 17.3828 225.586 22.8516C225.586 27.4089 227.148 33.6589 230.273 41.6016L300.977 220.703L350.195 87.8906C357.617 67.7083 361.328 51.5625 361.328 39.4531C361.328 28.6458 358.464 20.7682 352.734 15.8203C347.135 10.8724 338.802 8.26823 327.734 8.00781V0C345.703 0.78125 362.305 1.17188 377.539 1.17188C389.779 1.17188 399.935 0.78125 408.008 0V8.00781C392.904 13.8672 380.729 29.6875 371.484 55.4688L286.914 283.984C281.185 283.724 276.562 283.594 273.047 283.594C269.531 283.594 264.909 283.724 259.18 283.984L157.227 33.5938C150.586 17.0573 142.188 8.52865 132.031 8.00781Z" fill="white"/>
</svg>
