<svg width="132" height="25" viewBox="0 0 132 25" fill="none" xmlns="http://www.w3.org/2000/svg">
<path d="M0 24.7852V0.175781H3.05859V10.8984H6.22266V13.8867H3.05859V24.7852H0ZM7.98047 13.8867V10.8984H11.1094V0.175781H14.2031V24.7852H11.1094V13.8867H7.98047ZM16.9453 19.582V10.8984C16.9453 9.79688 17.4375 8.71875 18.4219 7.66406C19.6406 6.39844 21.1641 5.76562 22.9922 5.76562V8.61328C21.6094 8.61328 20.6484 9.1875 20.1094 10.3359C19.9453 10.6875 19.8633 11.0391 19.8633 11.3906V19.125C19.8633 19.9922 20.2617 20.7305 21.0586 21.3398C21.6211 21.7617 22.2656 21.9727 22.9922 21.9727V24.8203C20.7656 24.8203 19.043 23.918 17.8242 22.1133C17.2383 21.2227 16.9453 20.3789 16.9453 19.582ZM24.5039 24.8203V21.9727C25.7461 21.9727 26.6367 21.4102 27.1758 20.2852C27.3633 19.9102 27.457 19.5469 27.457 19.1953V11.3906C27.457 10.4297 27.0469 9.66797 26.2266 9.10547C25.7109 8.77734 25.125 8.61328 24.4688 8.61328V5.76562C26.625 5.76562 28.2891 6.64453 29.4609 8.40234C30.0469 9.26953 30.3398 10.1016 30.3398 10.8984V19.582C30.3398 20.7305 29.8477 21.8438 28.8633 22.9219C27.7148 24.1641 26.2617 24.7969 24.5039 24.8203ZM33.0117 19.7227V5.80078H36V19.3711C36 20.2148 36.4219 20.918 37.2656 21.4805C37.8281 21.832 38.4492 22.0078 39.1289 22.0078V24.9609C36.8789 24.9609 35.1445 24.082 33.9258 22.3242C33.3164 21.4336 33.0117 20.5664 33.0117 19.7227ZM40.6758 24.9609V22.0078C41.9414 22.0078 42.8672 21.5039 43.4531 20.4961C43.6641 20.1211 43.7695 19.7461 43.7695 19.3711V5.80078H46.7578V19.7227C46.7578 20.8242 46.2539 21.9141 45.2461 22.9922C44.0273 24.2812 42.5039 24.9375 40.6758 24.9609ZM48.7969 19.793L51.5742 19.2656C51.5742 20.3203 52.125 21.1523 53.2266 21.7617C53.7656 22.0195 54.2812 22.1602 54.7734 22.1836V24.9609C52.5 24.9609 50.8008 24.1406 49.6758 22.5C49.0898 21.6328 48.7969 20.7305 48.7969 19.793ZM48.9727 11.1445C48.9727 9.01172 49.9453 7.42969 51.8906 6.39844C52.8281 5.90625 53.7656 5.66016 54.7031 5.66016V8.40234C53.625 8.40234 52.793 8.84766 52.207 9.73828C51.9023 10.1836 51.75 10.6523 51.75 11.1445C51.75 11.8945 52.3359 12.5039 53.5078 12.9727C54.3984 13.3477 56.1211 13.8398 58.6758 14.4492C60.2695 14.7773 61.4062 15.5625 62.0859 16.8047C62.4375 17.4609 62.6133 18.1992 62.6133 19.0195C62.6133 21.2695 61.7109 22.9336 59.9062 24.0117C58.8516 24.6445 57.6445 24.9609 56.2852 24.9609V22.1836C57.3633 22.1836 58.2656 21.8086 58.9922 21.0586C59.5078 20.5195 59.7656 19.8867 59.7656 19.1602C59.7656 18.2227 58.8398 17.4727 56.9883 16.9102C56.5195 16.7695 55.7695 16.5703 54.7383 16.3125C53.6367 16.0547 52.8398 15.8438 52.3477 15.6797C50.5664 14.9766 49.4883 13.9102 49.1133 12.4805C49.0195 12.0586 48.9727 11.6133 48.9727 11.1445ZM56.25 8.4375V5.66016C58.2656 5.66016 59.8945 6.41016 61.1367 7.91016C61.9102 8.87109 62.2969 9.87891 62.2969 10.9336L59.5195 11.3906C59.5195 10.1016 58.8164 9.19922 57.4102 8.68359C56.9883 8.51953 56.6016 8.4375 56.25 8.4375ZM64.6875 19.582V10.8633C64.7109 9.78516 65.2266 8.71875 66.2344 7.66406C67.4531 6.42188 68.9297 5.78906 70.6641 5.76562V8.54297C69.5391 8.54297 68.6602 9.03516 68.0273 10.0195C67.7695 10.4414 67.6406 10.8281 67.6406 11.1797V13.5703H75.5156V11.1797C75.5156 10.125 74.9766 9.35156 73.8984 8.85938C73.4062 8.625 72.9023 8.50781 72.3867 8.50781V5.76562C74.0039 5.76562 75.4453 6.33984 76.7109 7.48828C77.7656 8.49609 78.3047 9.60938 78.3281 10.8281V16.418H67.6406V19.582C67.6406 20.2383 68.0156 20.8477 68.7656 21.4102C69.375 21.832 70.0195 22.043 70.6992 22.043V24.7852C68.5664 24.7852 66.8906 23.918 65.6719 22.1836C65.0156 21.2695 64.6875 20.4023 64.6875 19.582ZM72.3867 24.7852V22.0078C73.793 22.0078 74.8477 21.3984 75.5508 20.1797C75.6914 19.9219 75.7969 19.6758 75.8672 19.4414L78.3633 20.3555C77.9414 21.9727 76.9805 23.1914 75.4805 24.0117C74.5195 24.5273 73.4883 24.7852 72.3867 24.7852ZM80.0859 0.175781H83.1797L89.4375 21.5508L88.3125 24.7852H87.2227L80.0859 0.175781ZM88.6641 13.2188L93.0234 0.175781H96.1172C95.9062 0.855469 95.0273 3.57422 93.4805 8.33203C91.6758 13.8633 90.6445 17.0391 90.3867 17.8594H90.0352L88.6641 13.2188ZM97.8047 17.9297V6.36328C97.8047 5.12109 98.332 3.85547 99.3867 2.56641C100.793 0.878906 102.574 0.0234375 104.73 0V3.05859C103.301 3.05859 102.188 3.78516 101.391 5.23828C101.062 5.87109 100.898 6.43359 100.898 6.92578V17.9297C100.898 19.4062 101.625 20.5547 103.078 21.375C103.688 21.7266 104.227 21.9023 104.695 21.9023V24.9609C103.359 24.9609 102.023 24.4805 100.688 23.5195C98.7891 22.1133 97.8281 20.25 97.8047 17.9297ZM106.629 24.9609V21.9023C107.449 21.9023 108.281 21.5391 109.125 20.8125C110.016 20.0156 110.473 19.0547 110.496 17.9297V6.92578C110.496 6.01172 110.121 5.13281 109.371 4.28906C108.598 3.49219 107.684 3.08203 106.629 3.05859V0C108.996 0 110.895 1.01953 112.324 3.05859C113.145 4.23047 113.555 5.33203 113.555 6.36328V17.9297C113.555 20.5312 112.395 22.5234 110.074 23.9062C108.855 24.6094 107.707 24.9609 106.629 24.9609ZM116.402 24.7852H119.461V0.175781H116.402V24.7852ZM121.219 13.7812H125.016C128.086 13.7578 130.008 12.5859 130.781 10.2656C131.086 9.32812 131.238 8.21484 131.238 6.92578C131.238 2.63672 129.305 0.386719 125.438 0.175781C125.297 0.175781 125.156 0.175781 125.016 0.175781H121.219V3.12891H124.523C126.891 3.17578 128.086 4.44141 128.109 6.92578C128.062 9.48047 126.879 10.7695 124.559 10.793H121.219V13.7812Z" fill="white"/>
</svg>
