<svg width="276" height="284" viewBox="0 0 276 284" fill="none" xmlns="http://www.w3.org/2000/svg">
<path opacity="0.02" d="M0 8.00781V0C16.0156 0.78125 36.3281 1.17188 60.9375 1.17188C88.4115 1.17188 108.659 0.78125 121.68 0V8.00781C111.654 8.39844 104.427 9.63542 100 11.7188C95.7031 13.6719 93.5547 17.3828 93.5547 22.8516C93.5547 27.4089 95.1172 33.6589 98.2422 41.6016L168.945 220.703L218.164 87.8906C225.586 67.7083 229.297 51.5625 229.297 39.4531C229.297 28.6458 226.432 20.7682 220.703 15.8203C215.104 10.8724 206.771 8.26823 195.703 8.00781V0C213.672 0.78125 230.273 1.17188 245.508 1.17188C257.747 1.17188 267.904 0.78125 275.977 0V8.00781C260.872 13.8672 248.698 29.6875 239.453 55.4688L154.883 283.984C149.154 283.724 144.531 283.594 141.016 283.594C137.5 283.594 132.878 283.724 127.148 283.984L25.1953 33.5938C18.5547 17.0573 10.1562 8.52865 0 8.00781Z" fill="white"/>
</svg>
